<svg
   width="512"
   height="512"
   version="1.1"
   id="svg14">
  <defs
     id="defs18" />
  <path
     style="fill:#999999;stroke-width:10.6667"
     d="M 512,256 A 256,256 0 0 1 256,512 256,256 0 0 1 -3e-6,256 256,256 0 0 1 256,0 256,256 0 0 1 512,256 Z"
     id="path2" />
  <path
     style="fill:#b3b3b3;stroke-width:10.6667"
     d="M 490.66667,256 A 234.66667,234.66667 0 0 1 256,490.66667 234.66667,234.66667 0 0 1 21.333327,256 234.66667,234.66667 0 0 1 256,21.33333 234.66667,234.66667 0 0 1 490.66667,256 Z"
     id="path4" />
  <path
     style="fill:#cccccc;stroke-width:10.6667"
     d="M 480,256 A 224,224 0 0 1 256,480 224,224 0 0 1 31.999997,256 224,224 0 0 1 256,32 224,224 0 0 1 480,256 Z"
     id="path6" />
  <path
     style="fill:#e6e6e6;stroke-width:10.6667"
     d="M 256,32 A 224,224 0 0 0 31.999997,256 224,224 0 0 0 256,480 224,224 0 0 0 480,256 224,224 0 0 0 256,32 Z m 42.02083,10.66667 a 42.666667,42.666667 0 0 1 0.64584,0 42.666667,42.666667 0 0 1 42.66666,42.66666 A 42.666667,42.666667 0 0 1 298.66667,128 42.666667,42.666667 0 0 1 256,85.33333 42.666667,42.666667 0 0 1 298.02083,42.66667 Z M 106.125,128 a 21.333333,21.333333 0 0 1 0.0208,0 21.333333,21.333333 0 0 1 0.52087,0 A 21.333333,21.333333 0 0 1 128,149.33334 21.333333,21.333333 0 0 1 106.66667,170.66667 21.333333,21.333333 0 0 1 85.333327,149.33334 21.333333,21.333333 0 0 1 106.125,128 Z m 266.20833,42.66667 a 74.666667,74.666667 0 0 1 1,0 A 74.666667,74.666667 0 0 1 448,245.33334 74.666667,74.666667 0 0 1 373.33333,320 74.666667,74.666667 0 0 1 298.66667,245.33334 74.666667,74.666667 0 0 1 372.33333,170.66667 Z M 138.66667,277.33334 A 53.333333,53.333333 0 0 1 192,330.66667 53.333333,53.333333 0 0 1 138.66667,384 53.333333,53.333333 0 0 1 85.333327,330.66667 53.333333,53.333333 0 0 1 138.66667,277.33334 Z"
     id="path8" />
  <path
     style="fill:#4d4d4d;stroke-width:10.6667"
     d="m 213.33334,128 c -1.28728,0.0277 -9.37844,-0.11872 -10.66667,0 -54.89492,4.63399 -75.01724,41.76464 -74.66667,96 l -74.666673,85.33334 h 85.333343 c 24.08471,74.37111 80.70718,152.06477 149.74999,200.60416 99.70467,-12.73149 182.73309,-82.63215 212.27084,-178.70833 L 288,160 c 0,0 -34.76169,-32.72147 -74.66666,-32 z m -11.22917,64 h 0.0213 c 0.18059,-0.001 0.36107,-0.001 0.54166,0 17.67311,0 32,14.32689 32,32 0,17.67311 -14.32689,32 -32,32 -17.67311,0 -32,-14.32689 -32,-32 -0.003,-17.45575 13.98444,-31.69316 31.4375,-32 z"
     id="path10" />
  <path
     style="opacity:0.5005;fill:#4d4d4d;stroke-width:10.6667"
     d="m 149.22917,155.47917 -138.229173,174.75 a 256,256 0 0 0 209.229173,179.25 c 4.10714,0.54346 8.21376,1.08136 12.375,1.4375 a 256,256 0 0 0 3.60416,0.31254 c 6.54188,0.47216 13.13801,0.77061 19.79167,0.77079 4.76406,-3.3e-4 8.90232,-0.14411 13.08333,-0.33333 a 256,256 0 0 0 6.45834,-0.41664 c 0.0864,-0.007 0.1841,-0.0139 0.27082,-0.0213 3.99876,-0.31274 7.95209,-0.64458 12.45834,-1.27082 a 256,256 0 0 0 0.14581,-0.0213 C 219.37385,461.39811 162.75138,383.70445 138.66667,309.33334 H 53.333327 L 128.0625,227.47917 c -0.18795,-29.08083 6.52652,-54.1093 21.18751,-71.85416 z"
     id="path12" />
</svg>
