<svg
  width="48"
  height="48">
  <path
    style="fill:#999999"
    d="M 48,24 A 24,24 0 0 1 24,48 24,24 0 0 1 0,24 24,24 0 0 1 24,0 24,24 0 0 1 48,24 Z" />
  <path
    style="fill:#b3b3b3"
    d="M 46,24 A 22,22 0 0 1 24,46 22,22 0 0 1 2,24 22,22 0 0 1 24,2 22,22 0 0 1 46,24 Z" />
  <path
    style="fill:#cccccc"
    d="M 45,24 A 21,21 0 0 1 24,45 21,21 0 0 1 3,24 21,21 0 0 1 24,3 21,21 0 0 1 45,24 Z" />
  <path
    style="fill:#e6e6e6"
    d="M 24,3 A 21,21 0 0 0 3,24 21,21 0 0 0 24,45 21,21 0 0 0 45,24 21,21 0 0 0 24,3 Z m 3.939453,1 A 4,4 0 0 1 28,4 4,4 0 0 1 32,8 4,4 0 0 1 28,12 4,4 0 0 1 24,8 4,4 0 0 1 27.939453,4 Z M 9.9492188,12 a 2,2 0 0 1 0.00195,0 A 2,2 0 0 1 10,12 2,2 0 0 1 12,14 2,2 0 0 1 10,16 2,2 0 0 1 8,14 2,2 0 0 1 9.9492188,12 Z M 34.90625,16 A 7,7 0 0 1 35,16 a 7,7 0 0 1 7,7 7,7 0 0 1 -7,7 7,7 0 0 1 -7,-7 7,7 0 0 1 6.90625,-7 z M 13,26 a 5,5 0 0 1 5,5 5,5 0 0 1 -5,5 5,5 0 0 1 -5,-5 5,5 0 0 1 5,-5 z" />
  <path
    style="fill:#4d4d4d"
    d="m 20,12 c -0.120682,0.0026 -0.879228,-0.01113 -1,0 -5.146399,0.434436 -7.032866,3.915435 -7,9 l -7,8 h 8 c 2.257942,6.972292 7.566298,14.256073 14.039062,18.806641 9.347313,-1.193578 17.131227,-7.746764 19.900391,-16.753907 L 27,15 c 0,0 -3.258909,-3.067638 -7,-3 z m -1.052734,6 h 0.002 c 0.01693,-1.43e-4 0.03385,-1.43e-4 0.05078,0 1.656854,0 3,1.343146 3,3 0,1.656854 -1.343146,3 -3,3 -1.656854,0 -3,-1.343146 -3,-3 -2.53e-4,-1.636477 1.311042,-2.971234 2.947266,-3 z"/>
  <path
    style="opacity:0.5005;fill:#4d4d4d"
    d="M 13.990234 14.576172 L 1.03125 30.958984 A 24 24 0 0 0 20.646484 47.763672 C 21.031529 47.814622 21.416524 47.86505 21.806641 47.898438 A 24 24 0 0 0 22.144531 47.927734 C 22.757832 47.972003 23.376219 47.999983 24 48 C 24.44663 47.999969 24.834592 47.98649 25.226562 47.96875 A 24 24 0 0 0 25.832031 47.929688 C 25.840131 47.929063 25.849292 47.928434 25.857422 47.927734 C 26.232305 47.898414 26.60293 47.867304 27.025391 47.808594 A 24 24 0 0 0 27.039062 47.806641 C 20.566298 43.256073 15.257942 35.972292 13 29 L 5 29 L 12.005859 21.326172 C 11.988237 18.599844 12.61772 16.253425 13.992188 14.589844 L 13.990234 14.576172 z " />
</svg>
